# AST/ASF file generated using VICON BodyLanguage
# -----------------------------------------------
:version 1.10
:name VICON
:units
  mass 1.0
  length 0.45
  angle deg
:documentation
   .ast/.asf automatically generated from VICON data using
   VICON BodyBuilder and BodyLanguage model FoxedUp or BRILLIANT.MOD
:root
   order TX TY TZ RX RY RZ
   axis XYZ
   position 0 0 0  
   orientation 0 0 0 
:bonedata
  begin
     id 1 
     name lhipjoint
     direction 0.610259 -0.730986 0.305356 
     length 2.50941 
     axis 0 0 0  XYZ
  end
  begin
     id 2 
     name lfemur
     direction 0.34202 -0.939693 0  
     length 7.48822  
     axis 0 0 20  XYZ
    dof rx ry rz
    limits (-160.0 20.0)
           (-70.0 70.0)
           (-60.0 70.0)
  end
  begin
     id 3 
     name ltibia
     direction 0.34202 -0.939693 0   
     length 7.60141   
     axis 0 0 20   XYZ
    dof rx
    limits (-10.0 170.0)
  end
  begin
     id 4 
     name lfoot
     direction 0.0673488 -0.185039 0.980421   
     length 2.04049   
     axis -90 7.62852e-016 20   XYZ
    dof rx rz
    limits (-45.0 90.0)
           (-70.0 20.0)
  end
  begin
     id 5 
     name ltoes
     direction 1.5356e-011 -4.21729e-011 1   
     length 1.02897   
     axis -90 7.62852e-016 20   XYZ
    dof rx
    limits (-90.0 20.0)
  end
  begin
     id 6 
     name rhipjoint
     direction -0.57612 -0.754205 0.315056   
     length 2.43216  
     axis 0 0 0  XYZ 
  end
  begin
     id 7 
     name rfemur
     direction -0.34202 -0.939693 0   
     length 7.42799   
     axis 0 0 -20   XYZ
    dof rx ry rz
    limits (-160.0 20.0)
           (-70.0 70.0)
           (-70.0 60.0)
  end
  begin
     id 8 
     name rtibia
     direction -0.34202 -0.939693 0   
     length 7.69484   
     axis 0 0 -20   XYZ
    dof rx
    limits (-10.0 170.0)
 end
 begin
     id 9 
     name rfoot
     direction -0.111837 -0.30727 0.945028   
     length 2.15769  
     axis -90 -7.62852e-016 -20   XYZ
    dof rx rz
    limits (-45.0 90.0)
           (-20.0 70.0)
  end
  begin
     id 10 
     name rtoes
     direction -1.53539e-011 -4.21878e-011 1   
     length 1.07391   
     axis -90 -7.62852e-016 -20   XYZ
    dof rx
    limits (-90.0 20.0)
  end
  begin
     id 11 
     name lowerback
     direction 0.00552624 0.990109 -0.140195   
     length 2.12403   
     axis 0 0 0   XYZ
    dof rx ry rz
    limits (-20.0 45.0)
           (-30.0 30.0)
           (-30.0 30.0)
  end
  begin
     id 12 
     name upperback
     direction 0.00361898 0.999976 -0.00584723   
     length 2.13232   
     axis 0 0 0   XYZ
    dof rx ry rz
    limits (-20.0 45.0)
           (-30.0 30.0)
           (-30.0 30.0)
  end
  begin
     id 13 
     name thorax
     direction -0.000331275 0.998253 0.0590847   
     length 2.17688   
     axis 0 0 0   XYZ
    dof rx ry rz
    limits (-20.0 45.0)
           (-30.0 30.0)
           (-30.0 30.0)
  end
  begin
     id 14 
     name lowerneck
     direction -0.0561561 0.979832 0.19177   
     length 1.64159   
     axis 0 0 0   XYZ
    dof rx ry rz
    limits (-20.0 45.0)
           (-30.0 30.0)
           (-30.0 30.0)
  end
  begin
     id 15 
     name upperneck
     direction 0.0827153 0.979385 -0.184293   
     length 1.68939   
     axis 0 0 0   XYZ
    dof rx ry rz
    limits (-20.0 45.0)
           (-30.0 30.0)
           (-30.0 30.0)
  end
  begin
     id 16
     name head
     direction 0.0278583 0.995936 -0.0856488  
     length 1.70207  
     axis 0 0 0   XYZ
    dof rx ry rz
    limits (-20.0 45.0)
           (-30.0 30.0)
           (-30.0 30.0)
  end
  begin
     id 17 
     name lclavicle
     direction 0.950993 0.301131 -0.0702275  
     length 3.41652  
     axis 0 0 0   XYZ
    dof ry rz
    limits (-20.0 10.0)
           (0.0 20.0)
  end
  begin
     id 18 
     name lhumerus
     direction 1 -4.48981e-011 -3.9662e-029   
     length 5.32955   
     axis 180 -30 -90   XYZ
    dof rx ry rz
    limits (-60.0 90.0)
           (-90.0 90.0)
           (-90.0 90.0)
  end
  begin
     id 19
     name lradius
     direction 1 -4.48925e-011 -9.0549e-027   
     length 3.69232   
     axis 180 -30 -90   XYZ
    dof rx
    limits (-10.0 170.0)
  end
  begin
     id 20
     name lwrist
     direction 1 -4.49007e-011 -1.49005e-026   
     length 1.84616   
     axis 9.0955e-015 90 90   XYZ
    dof ry
    limits (-180.0 0.0)
 end
  begin
     id 21 
     name lhand
     direction 1 -4.49016e-011 -2.98023e-026   
     length 0.536598   
     axis 1.90115e-014 90 90   XYZ
    dof rx rz
    limits (-90.0 90.0)
           (-45.0 45.0)
  end
  begin
     id 22 
     name lfingers
     direction 1 -4.48924e-011 -5.9578e-026   
     length 0.432619   
     axis 3.80223e-014 90 90   XYZ
    dof rx
    limits (0.0 90.0)
  end
  begin
     id 23
     name lthumb
     direction 0.707107 -6.34947e-011 0.707107   
     length 0.621157   
     axis -90 45 -3.84942e-014   XYZ
    dof rx rz
    limits (-45.0 45.0)
           (-45.0 45.0)
  end
  begin
     id 24 
     name rclavicle
     direction -0.955495 0.276497 -0.102848   
     length 3.36357  
     axis 0 0 0   XYZ 
    dof ry rz
    limits (-10.0 20.0)
           (-20.0 0.0)
  end
  begin
     id 25 
     name rhumerus
     direction -1 -4.48961e-011 3.30983e-027  
     length 5.23431   
     axis 180 30 90   XYZ
    dof rx ry rz
    limits (-90.0 60.0)
           (-90.0 90.0)
           (-90.0 90.0)
  end
  begin
     id 26 
     name rradius
     direction -1 -4.48965e-011 -6.63263e-027   
     length 3.55301   
     axis 180 30 90   XYZ
    dof rx
    limits (-10.0 170.0)
  end
  begin
     id 27 
     name rwrist
     direction -1 -4.48942e-011 -1.48958e-026   
     length 1.77651   
     axis 9.0955e-015 -90 -90   XYZ
    dof ry
    limits (-180.0 0.0)
  end
  begin
     id 28
     name rhand
     direction -1 -4.48977e-011 -2.97966e-026   
     length 0.772522   
     axis 1.90115e-014 -90 -90   XYZ
    dof rx rz
    limits (-90.0 90.0)
           (-45.0 45.0)
  end
  begin
     id 29
     name rfingers
     direction -1 -4.49135e-011 -5.96389e-026   
     length 0.622827   
     axis 3.80223e-014 -90 -90   XYZ
    dof rx
    limits (0.0 90.0)
  end
  begin
     id 30
     name rthumb
     direction -0.707107 -6.34969e-011 0.707107   
     length 0.894259   
     axis -90 -45 3.84942e-014   XYZ
    dof rx rz
    limits (-45.0 45.0)
           (-45.0 45.0)
  end
:hierarchy
  begin
    root lhipjoint rhipjoint lowerback
    lhipjoint lfemur
    lfemur ltibia
    ltibia lfoot
    lfoot ltoes
    rhipjoint rfemur
    rfemur rtibia
    rtibia rfoot
    rfoot rtoes
    lowerback upperback
    upperback thorax
    thorax lowerneck lclavicle rclavicle
    lowerneck upperneck
    upperneck head
    lclavicle lhumerus
    lhumerus lradius
    lradius lwrist
    lwrist lhand lthumb
    lhand lfingers
    rclavicle rhumerus
    rhumerus rradius
    rradius rwrist
    rwrist rhand rthumb
    rhand rfingers
  end

#!OML:ASF F:\VICON\USERDATA\INSTALL\rory3\rory3.ASF
:FULLY-SPECIFIED
:DEGREES
52
root -10.0714 17.7838 -7.92752 1.6304 36.4424 -3.13623
lowerback 11.6137 2.06696 3.43712
upperback 2.34819 3.26378 1.62919
thorax -3.95023 1.59749 -0.715672
lowerneck -16.307 -7.00273 -15.0907
upperneck 33.9011 -8.14404 8.62869
head 15.8044 -4.10262 4.84894
rclavicle 7.49418e-014 2.34566e-014
rhumerus -28.3403 -12.8602 -80.8407
rradius 25.4746
rwrist 13.2296
rhand -15.8306 7.02744
rfingers 7.12502
rthumb 10.3636 -22.6972
lclavicle 7.49418e-014 2.34566e-014
lhumerus -34.9352 12.094 82.1828
lradius 24.9296
lwrist -8.91275
lhand -18.966 22.937
lfingers 7.12502
lthumb 7.33801 52.7898
rfemur 7.44145 -4.4561 28.3721
rtibia 11.4765
rfoot -14.3756 -5.69071
rtoes -0.228918
lfemur -25.3057 0.257971 -17.9019
ltibia 14.0961
lfoot -4.09209 3.84466
ltoes -9.2332
53
root -10.0151 17.7835 -7.86868 1.49325 36.3137 -3.26096
lowerback 11.6837 2.07808 3.45039
upperback 2.32531 3.28533 1.65294
thorax -4.01271 1.60663 -0.705132
lowerneck -16.2869 -7.09619 -15.6402
upperneck 34.0719 -8.27928 9.08494
head 15.9733 -4.17595 5.13298
rclavicle 2.0276e-014 -8.74653e-015
rhumerus -28.4094 -12.7976 -80.9003
rradius 25.6557
rwrist 12.9642
rhand -15.868 7.19222
rfingers 7.12502
rthumb 10.3275 -22.5342
lclavicle 2.0276e-014 -8.74653e-015
lhumerus -35.0892 12.7509 81.6848
lradius 24.5322
lwrist -9.9355
lhand -18.4402 21.1588
lfingers 7.12502
lthumb 7.84543 50.9932
rfemur 7.79677 -4.48241 28.4038
rtibia 11.4922
rfoot -14.2043 -5.66502
rtoes -1.35634
lfemur -24.9895 0.154389 -17.8399
ltibia 14.3632
lfoot -3.92063 3.7671
ltoes -7.67372
54
root -9.95521 17.7888 -7.80956 1.49256 36.1339 -3.31839
lowerback 11.5988 2.11671 3.41126
upperback 2.35048 3.32824 1.68334
thorax -3.94222 1.63 -0.653452
lowerneck -16.3844 -7.10559 -15.6645
upperneck 34.1246 -8.30243 9.1627
head 16.0333 -4.1781 5.16964
rclavicle 2.74323e-014 -5.56597e-015
rhumerus -28.3075 -12.6776 -80.9388
rradius 25.7831
rwrist 12.629
rhand -15.7663 7.18117
rfingers 7.12502
rthumb 10.4256 -22.5403
lclavicle 2.74323e-014 -5.56597e-015
lhumerus -35.1408 12.9071 81.6177
lradius 24.4423
lwrist -10.0007
lhand -18.4978 21.3
lfingers 7.12502
lthumb 7.78991 51.1365
rfemur 8.06697 -4.44317 28.3512
rtibia 11.4516
rfoot -13.9789 -5.56115
rtoes -1.35827
lfemur -24.7701 -0.032257 -17.7776
ltibia 14.6354
lfoot -3.45795 3.55499
ltoes -5.72636
55
root -9.89523 17.798 -7.75088 1.60378 35.9464 -3.27853
lowerback 11.5013 2.20185 3.33145
upperback 2.34965 3.42525 1.66363
thorax -3.88957 1.67949 -0.638777
lowerneck -16.5051 -7.13251 -15.6331
upperneck 34.217 -8.34822 9.18855
head 16.1163 -4.18869 5.17045
rclavicle 2.0773e-014 2.06736e-014
rhumerus -28.2079 -12.6542 -80.9618
rradius 25.8743
rwrist 12.4373
rhand -15.7921 7.18069
rfingers 7.12502
rthumb 10.4007 -22.5421
lclavicle 2.0773e-014 2.06736e-014
lhumerus -35.0845 12.6862 81.8429
lradius 24.4757
lwrist -9.36679
lhand -19.0113 22.5982
lfingers 7.12502
lthumb 7.29428 52.4525
rfemur 8.25389 -4.34224 28.2108
rtibia 11.3784
rfoot -13.6934 -5.47251
rtoes -1.01115
lfemur -24.6513 -0.139107 -17.8101
ltibia 14.8527
lfoot -2.79025 3.30474
ltoes -5.89583
56
root -9.83357 17.8102 -7.68938 1.64913 35.7681 -3.23708
lowerback 11.4733 2.23624 3.24883
upperback 2.32669 3.45793 1.62539
thorax -3.89959 1.69571 -0.636344
lowerneck -16.4582 -7.08634 -15.5689
upperneck 34.2491 -8.30848 9.18753
head 16.1089 -4.1654 5.16943
rclavicle 4.57205e-014 -3.49861e-014
rhumerus -28.2164 -12.6698 -81.0076
rradius 26.0173
rwrist 12.4095
rhand -15.5967 7.17936
rfingers 7.12502
rthumb 10.5892 -22.5339
lclavicle 4.57205e-014 -3.49861e-014
lhumerus -35.1351 12.4306 81.9734
lradius 24.4995
lwrist -8.67548
lhand -19.4155 23.2589
lfingers 7.12502
lthumb 6.90411 53.1263
rfemur 8.593 -4.17146 28.0993
rtibia 11.2286
rfoot -13.3254 -5.45645
rtoes -1.44072
lfemur -24.5039 -0.20578 -17.8345
ltibia 15.0216
lfoot -2.14346 3.12754
ltoes -5.65157
